PathFileType	4	(X/Y/Z)	Patient4_TMGait_0pt4_01_right_09.trc.trc
DataRate	CameraRate	NumFrames	NumMarkers	Units	OrigDataRate	OrigDataStartFrame	OrigNumFrames
73.684210526316	73.684210526316	4	33	mm	73.684210526316	124	       141
Frame#	Time	Sacral			L.Shoulder			Chest			R.Shoulder			Neck			R.ASIS			L.ASIS			R.Thigh.Superior			R.Thigh.Lateral			R.Thigh.Inferior			R.Patella			L.Thigh.Superior			L.Thigh.Lateral			L.Thigh.Inferior			L.Patella			L.Shank.Superior			L.Shank.Lateral			L.Shank.Inferior			R.Shank.Superior			R.Shank.Lateral			R.Shank.Inferior			R.Heel			R.Midfoot.Superior			R.Midfoot.Lateral			R.Toe			L.Heel			L.Midfoot.Lateral			L.Midfoot.Superior			L.Toe			L.Elbow			L.Wrist			R.Elbow			R.Wrist			
		X1	Y1	Z1	X2	Y2	Z2	X3	Y3	Z3	X4	Y4	Z4	X5	Y5	Z5	X6	Y6	Z6	X7	Y7	Z7	X8	Y8	Z8	X9	Y9	Z9	X10	Y10	Z10	X11	Y11	Z11	X12	Y12	Z12	X13	Y13	Z13	X14	Y14	Z14	X15	Y15	Z15	X16	Y16	Z16	X17	Y17	Z17	X18	Y18	Z18	X19	Y19	Z19	X20	Y20	Z20	X21	Y21	Z21	X22	Y22	Z22	X23	Y23	Z23	X24	Y24	Z24	X25	Y25	Z25	X26	Y26	Z26	X27	Y27	Z27	X28	Y28	Z28	X29	Y29	Z29	X30	Y30	Z30	X31	Y31	Z31	X32	Y32	Z32	X33	Y33	Z33	

124	12.999285714286	788.349716132491	1001.283368503314	459.049335780946	993.621837760970	1422.429216067209	281.795625377958	1070.185158523522	1361.822759652664	459.216940618275	962.436929557701	1442.513663946499	616.190280734623	953.871707912891	1491.785880969266	432.779318468801	1004.894384785982	943.388805109724	602.480700192953	1021.195995361419	957.628066209361	325.411989977651	1068.859052532277	752.574174278731	577.927012695335	1004.367150263192	634.510525899773	639.761695658747	1091.302846095440	591.526243756843	562.029322466145	1112.003895038624	509.969392613794	572.902407653091	1019.628879158695	730.210014868866	354.282067817288	904.372188672620	634.070603316265	290.067890349412	964.457945733215	541.757300585938	354.426366496040	949.240677322605	475.449120222586	364.006229375299	915.736543942935	409.136388474092	356.362146169927	811.523406297024	305.907412472983	306.649061986501	849.201856208142	189.866540973081	380.004647855513	1095.942061336961	420.911464461467	582.530349936512	1039.175042218933	308.323460990145	643.794391807499	1104.718168350551	221.140960367397	590.136887176553	1004.238672592767	41.611102007540	562.160156824437	1170.442456575188	105.375984775692	597.505647547781	1088.775381344110	38.423338347683	635.420147161642	1293.388960019509	63.789394799064	623.073796580500	708.561396632190	39.912941158356	424.343302147911	783.721440378725	35.468598792086	345.418619506225	867.543911782164	95.488377053307	372.218876530787	995.970271038952	39.648854385447	346.982851897026	1048.718054776734	1080.986792288050	154.128087472672	1280.772219165732	960.645207960574	167.502147241885	843.201301724976	1117.220130105049	729.616006066000	881.326365935829	858.332904622328	734.876117506758	
125	13.012857142857	789.684782542360	999.831348894865	461.819241555123	992.180220122357	1421.789823142037	284.438176629112	1069.877683605922	1361.534228041068	461.558624410581	962.294905382986	1441.494722894006	619.062629391689	952.999429749471	1490.976708538064	435.601783267552	1007.130746740620	942.152084008088	604.367277054487	1022.319506553720	957.208374812978	327.381763720978	1071.596782593078	751.308838958836	579.010910549024	1006.088302680138	632.967238747493	639.839688940180	1093.227687050172	590.574568453980	562.156168953216	1112.394527520825	508.147494961120	572.070408338988	1020.530670639780	729.506125175934	355.331422430080	904.551984002866	633.621578022367	291.606118592473	964.762712893775	540.892104848778	355.405486491193	949.496841550513	473.856781368711	364.730931787310	914.661667141684	407.977326950845	357.165547327621	808.693213873220	306.359785279021	307.647444953492	845.034796044382	189.474599029931	380.341067367835	1095.717889291203	418.565945447614	581.650329743290	1037.795219886615	306.668630173468	643.081633830244	1101.260627297486	218.684459653929	588.645406308845	997.385629721817	41.564869904897	560.955217343232	1164.729350320471	102.851993730723	596.263314920689	1081.758890544106	37.756131524409	634.392941339752	1286.991131029770	59.381357529439	621.795056295920	703.034057522469	40.399230253227	424.243478735463	778.264613708405	35.556335550707	345.426091874846	862.229582302183	95.524725423253	372.149709965257	990.551884343113	39.509939579479	346.894546157195	1045.532806322760	1079.441761588469	157.443172113093	1274.921348232355	953.321645419010	169.007721052666	847.382804877169	1114.684124623082	733.332919988474	893.600069191176	857.141760041093	738.886317022318	
126	13.026428571429	791.010732154106	998.531516580128	464.714098786282	990.717838310031	1421.375534187959	287.260814579700	1069.591005909818	1361.426705450336	464.039722512090	962.233412827675	1440.613749268301	622.125000711714	952.158252711952	1490.361343780143	438.620835244246	1009.480918266386	941.182637505771	606.319846476997	1023.378241752444	956.952926701995	329.416936219320	1074.625427645377	750.463454778926	579.866941748921	1008.513288520269	631.905643211618	640.074818320854	1095.633179049771	590.003388570642	562.223338547765	1113.339239114514	506.602208063021	571.367975642635	1021.836530820098	728.998083131296	356.471326557198	905.420996385258	633.097382608911	293.242882791126	966.079690153071	540.045154287081	356.427663021783	950.891331690361	472.094462365033	365.359689671483	914.430939679309	406.697788119814	357.964765136486	806.474956006181	306.993106892401	308.733357700375	841.179329950647	189.162806212483	380.653131388513	1095.927703632714	416.560523770061	580.961073291599	1036.901778456117	305.451810591681	642.828851544011	1097.973240758444	216.542749138485	587.477164665548	990.472205447470	41.665661769697	560.289646080731	1158.857125290249	100.803627191366	595.340672418489	1074.770445223260	37.305497993837	633.830585313691	1280.571515565722	55.592347367472	620.824845401375	697.535297516342	41.291258884489	424.130259199564	772.828194557157	35.784497062761	345.433522501941	857.059561251933	95.588043100724	372.012479627717	985.148415920627	39.347873661738	346.795844348541	1041.979816416324	1078.024561493040	161.022393646187	1268.033615841447	945.344179973777	170.277549815302	851.915394608870	1112.233023440648	737.219243082177	906.576213060482	856.333995006323	743.094169823424	
127	13.040000000000	792.320215457981	997.440127864885	467.730590078269	989.252204125499	1421.241347927453	290.249196184054	1069.324273571064	1361.530596033514	466.640015631247	962.266368877301	1439.920791504856	625.353125808361	951.351206576608	1489.982466776583	441.823288657062	1011.905944147260	940.537551968803	608.343493193950	1024.340523132755	956.909320397442	331.508989537556	1077.772843754462	750.014142622510	580.527191543129	1011.448209619631	631.312568394729	640.510464128151	1098.286305428903	589.746310507363	562.273372873539	1114.638859291548	505.344685570562	570.857704351319	1023.572711161694	728.739985938650	357.708035837442	907.067710096829	632.513602738570	294.944884726692	968.555065417266	539.253046898125	357.436141078374	953.571979541831	470.198643390035	365.788662968212	915.173096165498	405.338624638364	358.679716178649	804.975850294972	307.893155039063	309.863037612834	837.742958626475	189.018467355991	380.877783360899	1096.413849803929	414.925986905055	580.494284646150	1036.397841761124	304.643471728874	642.987683432615	1094.902456826745	214.769026374115	586.627748990988	983.790562714943	41.845415854826	560.060752453858	1153.034512196361	99.299806370604	594.705270707310	1068.076591185267	37.042419613518	633.650237799167	1274.359702090349	52.588610351625	620.175311291003	692.120107099187	42.767419137847	423.993298670467	767.441131231976	36.245242555870	345.433304741145	852.108220623966	95.702916873580	371.772403036294	979.758633602718	39.167504072153	346.691124780545	1038.106361586202	1076.817845162723	164.867800948484	1260.030684541675	936.809394055251	171.350841337939	856.826482298713	1109.934986110070	741.270398919922	920.196676126985	856.005888174407	747.437062353603	
